<?xml version="1.0" standalone="no"?><!DOCTYPE svg PUBLIC "-//W3C//DTD SVG 1.1//EN" "http://www.w3.org/Graphics/SVG/1.1/DTD/svg11.dtd"><svg t="1643267850001" class="icon" viewBox="0 0 1024 1024" version="1.1" xmlns="http://www.w3.org/2000/svg" p-id="2349" xmlns:xlink="http://www.w3.org/1999/xlink" width="48" height="48"><defs><style type="text/css"></style></defs><path d="M783.515152 420.072727a27.849697 27.849697 0 0 1-1.318788-2.637575c-24.669091-33.745455-56.32-58.802424-88.979394-69.352728a181.527273 181.527273 0 0 0-18.618182-27.849697c-18.773333-23.272727-39.796364-35.141818-60.586667-35.141818h-3.64606a86.186667 86.186667 0 0 0-48.795152 20.790303C550.787879 313.638788 544.659394 318.060606 535.272727 318.060606s-15.515152-4.344242-25.987879-12.101818a85.876364 85.876364 0 0 0-48.795151-20.790303h-3.646061c-20.867879 0-41.813333 12.179394-60.586666 35.141818a189.362424 189.362424 0 0 0-18.618182 27.849697c-44.993939 14.584242-88.126061 56.552727-113.570909 110.933333a247.001212 247.001212 0 0 0-23.272727 93.711515 220.858182 220.858182 0 0 0 17.92 97.357576A181.682424 181.682424 0 0 0 294.787879 683.675152a263.757576 263.757576 0 0 0 78.118788 36.693333A496.484848 496.484848 0 0 0 512 739.064242a496.484848 496.484848 0 0 0 138.938182-18.695757A266.007273 266.007273 0 0 0 729.212121 683.675152a170.123636 170.123636 0 0 0 57.638788-68.189091A220.70303 220.70303 0 0 0 806.787879 513.784242a248.242424 248.242424 0 0 0-23.272727-93.711515z" fill="#E9F2FF" p-id="2350"></path><path d="M433.570909 281.05697h2.715152a72.145455 72.145455 0 0 1 40.416969 17.764848c10.395152 7.757576 20.247273 15.515152 35.29697 15.515152s24.746667-7.292121 35.452121-15.515152a70.904242 70.904242 0 0 1 40.261818-17.687273h2.792728c16.058182 0 32.814545 10.162424 48.484848 29.401213a161.28 161.28 0 0 1 17.144243 25.522424L659.393939 341.333333l5.895758 1.939394C705.939394 356.848485 745.658182 395.636364 769.163636 446.060606A231.330909 231.330909 0 0 1 791.272727 533.798788 204.722424 204.722424 0 0 1 772.57697 628.363636a155.151515 155.151515 0 0 1-52.518788 62.060606 251.42303 251.42303 0 0 1-73.541818 34.521213A481.512727 481.512727 0 0 1 512 742.94303a480.969697 480.969697 0 0 1-134.516364-17.997575A249.406061 249.406061 0 0 1 303.941818 690.424242a155.151515 155.151515 0 0 1-52.518788-62.060606A204.8 204.8 0 0 1 232.727273 533.876364a232.727273 232.727273 0 0 1 21.798788-87.893334C278.341818 395.636364 318.060606 356.848485 359.098182 343.350303l5.895757-1.939394 2.947879-5.430303a169.425455 169.425455 0 0 1 17.066667-25.677576c15.515152-19.316364 32.504242-29.478788 48.562424-29.478788m0-15.515151c-20.867879 0-41.813333 12.179394-60.586667 35.141818a189.362424 189.362424 0 0 0-18.618181 27.849697c-44.993939 14.584242-88.126061 56.552727-113.570909 110.933333a247.001212 247.001212 0 0 0-23.272728 93.711516 220.858182 220.858182 0 0 0 19.781818 101.701818A170.123636 170.123636 0 0 0 294.787879 703.069091a263.757576 263.757576 0 0 0 78.118788 36.693333A496.484848 496.484848 0 0 0 512 758.458182a496.484848 496.484848 0 0 0 138.938182-18.695758A266.007273 266.007273 0 0 0 729.212121 703.069091a170.123636 170.123636 0 0 0 57.638788-68.189091A220.70303 220.70303 0 0 0 806.787879 533.178182a248.242424 248.242424 0 0 0-23.272727-93.711515c-25.522424-54.30303-68.57697-96.271515-113.57091-110.778182a181.527273 181.527273 0 0 0-18.618181-27.849697c-18.773333-23.272727-39.796364-35.141818-60.586667-35.141818h-3.646061a86.186667 86.186667 0 0 0-48.795151 20.790303c-10.395152 7.757576-16.678788 12.024242-26.065455 12.024242s-15.515152-4.344242-25.987879-12.101818a85.876364 85.876364 0 0 0-48.795151-20.790303h-3.646061z" fill="#352635" p-id="2351"></path><path d="M328.843636 573.129697a7.757576 7.757576 0 0 1-3.723636-10.78303c27.539394-51.975758 103.253333-97.82303 126.758788-111.166061a7.757576 7.757576 0 0 1 10.550303 3.10303 7.757576 7.757576 0 0 1-2.870303 10.24c-22.264242 12.8-95.806061 57.406061-120.86303 105.192728a7.757576 7.757576 0 0 1-9.852122 3.413333zM454.904242 571.035152a7.757576 7.757576 0 0 1-6.826666-8.61091 321.939394 321.939394 0 0 1 35.995151-105.580606 7.757576 7.757576 0 0 1 10.783031-2.715151 7.757576 7.757576 0 0 1 2.715151 10.162424 310.30303 310.30303 0 0 0-34.210909 99.995152 7.757576 7.757576 0 0 1-8.455758 6.749091zM560.872727 564.286061c-4.57697-36.460606-26.298182-82.928485-34.753939-99.917576a7.757576 7.757576 0 0 1 3.258182-10.162424 7.757576 7.757576 0 0 1 10.472727 3.335757c8.843636 17.687273 31.030303 65.318788 36.227879 104.494546a7.757576 7.757576 0 0 1-7.13697 8.843636 7.757576 7.757576 0 0 1-8.067879-6.593939zM684.993939 567.77697c-28.935758-50.734545-98.443636-89.677576-120.087272-100.848485a7.757576 7.757576 0 0 1-3.413334-10.084849 7.757576 7.757576 0 0 1 10.472728-3.568484c23.272727 11.869091 95.418182 52.363636 126.681212 107.597575a7.757576 7.757576 0 0 1-3.413334 10.472728 7.757576 7.757576 0 0 1-10.24-3.568485z" fill="#352635" p-id="2352"></path></svg>