<?xml version="1.0" standalone="no"?><!DOCTYPE svg PUBLIC "-//W3C//DTD SVG 1.1//EN" "http://www.w3.org/Graphics/SVG/1.1/DTD/svg11.dtd"><svg t="1643267844821" class="icon" viewBox="0 0 1024 1024" version="1.1" xmlns="http://www.w3.org/2000/svg" p-id="2199" xmlns:xlink="http://www.w3.org/1999/xlink" width="48" height="48"><defs><style type="text/css"></style></defs><path d="M674.909091 566.30303V434.424242a31.728485 31.728485 0 0 0-1.086061-7.757575H356.848485a31.030303 31.030303 0 0 0-31.030303 31.030303v131.878788a193.939394 193.939394 0 0 0 75.558788 153.6A193.241212 193.241212 0 0 0 480.969697 760.242424a193.939394 193.939394 0 0 0 193.939394-193.939394z" fill="#38EBC4" p-id="2200"></path><path d="M643.878788 418.909091a15.515152 15.515152 0 0 1 15.515151 15.515151v131.878788a178.424242 178.424242 0 0 1-356.848484 0V434.424242a15.515152 15.515152 0 0 1 15.515151-15.515151h325.818182m0-15.515152H318.060606a31.030303 31.030303 0 0 0-31.030303 31.030303v131.878788a193.939394 193.939394 0 0 0 193.939394 193.939394 193.939394 193.939394 0 0 0 193.939394-193.939394V434.424242a31.030303 31.030303 0 0 0-31.030303-31.030303zM387.878788 294.787879a7.757576 7.757576 0 0 0-7.757576 7.757576v62.060606a7.757576 7.757576 0 0 0 15.515152 0v-62.060606a7.757576 7.757576 0 0 0-7.757576-7.757576zM480.969697 248.242424a7.757576 7.757576 0 0 0-7.757576 7.757576v62.060606a7.757576 7.757576 0 0 0 15.515152 0v-62.060606a7.757576 7.757576 0 0 0-7.757576-7.757576zM574.060606 310.30303a7.757576 7.757576 0 0 0-7.757576 7.757576v62.060606a7.757576 7.757576 0 0 0 15.515152 0v-62.060606a7.757576 7.757576 0 0 0-7.757576-7.757576z" fill="#352635" p-id="2201"></path><path d="M547.607273 403.393939a7.757576 7.757576 0 0 0-7.757576 7.757576v62.060606a7.757576 7.757576 0 0 0 15.515151 0v-62.060606a7.757576 7.757576 0 0 0-7.757575-7.757576zM713.69697 449.939394a7.757576 7.757576 0 0 1 7.757575 7.757576v69.818182a31.030303 31.030303 0 0 1-31.030303 31.030303h-15.515151V449.939394h38.787879m0-15.515152h-54.303031v139.636364h31.030303a46.545455 46.545455 0 0 0 46.545455-46.545454v-69.818182a23.272727 23.272727 0 0 0-23.272727-23.272728z" fill="#352635" p-id="2202"></path><path d="M372.363636 768a23.272727 23.272727 0 0 1 0-46.545455h217.212122a23.272727 23.272727 0 0 1 0 46.545455z" fill="#B3CAFE" p-id="2203"></path><path d="M589.575758 729.212121a15.515152 15.515152 0 0 1 0 31.030303H372.363636a15.515152 15.515152 0 0 1 0-31.030303h217.212122m0-15.515151H372.363636a31.030303 31.030303 0 0 0-31.030303 31.030303 31.030303 31.030303 0 0 0 31.030303 31.030303h217.212122a31.030303 31.030303 0 0 0 31.030303-31.030303 31.030303 31.030303 0 0 0-31.030303-31.030303z" fill="#352635" p-id="2204"></path><path d="M528.213333 540.935758a11.636364 11.636364 0 0 1-11.636363-11.636364v-31.030303a11.636364 11.636364 0 0 1 3.180606-7.912727l19.393939-19.39394a11.636364 11.636364 0 0 1 16.446061 0l19.393939 19.39394a11.636364 11.636364 0 0 1 3.413333 8.22303v31.030303a11.636364 11.636364 0 0 1-11.636363 11.636364z" fill="#FFB82C" p-id="2205"></path><path d="M547.607273 475.306667a3.723636 3.723636 0 0 1 2.715151 1.08606l19.39394 19.39394a3.801212 3.801212 0 0 1 1.163636 2.792727v31.030303a3.878788 3.878788 0 0 1-3.878788 3.878788h-38.787879a3.878788 3.878788 0 0 1-3.878788-3.878788v-31.030303a3.801212 3.801212 0 0 1 1.163637-2.792727l19.393939-19.39394a3.646061 3.646061 0 0 1 2.715152-1.08606m0-15.515152a19.316364 19.316364 0 0 0-13.730909 5.66303l-19.39394 19.39394a19.316364 19.316364 0 0 0-5.66303 13.730909v31.030303a19.393939 19.393939 0 0 0 19.393939 19.393939h38.787879a19.393939 19.393939 0 0 0 19.39394-19.393939v-31.030303a19.316364 19.316364 0 0 0-5.663031-13.730909l-19.393939-19.39394a19.316364 19.316364 0 0 0-13.730909-5.66303z" fill="#352635" p-id="2206"></path></svg>