<?xml version="1.0" standalone="no"?><!DOCTYPE svg PUBLIC "-//W3C//DTD SVG 1.1//EN" "http://www.w3.org/Graphics/SVG/1.1/DTD/svg11.dtd"><svg t="1643267822999" class="icon" viewBox="0 0 1024 1024" version="1.1" xmlns="http://www.w3.org/2000/svg" p-id="1893" xmlns:xlink="http://www.w3.org/1999/xlink" width="48" height="48"><defs><style type="text/css"></style></defs><path d="M396.101818 275.161212a292.227879 292.227879 0 0 0-151.660606 178.967273 295.330909 295.330909 0 0 0 26.220606 230.322424l4.03394 6.438788a265.464242 265.464242 0 0 0 72.610909 68.57697 122.492121 122.492121 0 0 0 63.844848 18.230303 112.484848 112.484848 0 0 0 92.315152-45.614546c22.807273-28.470303 34.210909-78.661818 29.633939-126.52606-3.413333-31.883636 3.413333-54.30303 19.393939-67.258182 14.81697-11.403636 36.460606-13.653333 61.517576-5.66303 0 0 90.453333 25.444848 137.929697 25.056969a51.587879 51.587879 0 0 0 38.787879-17.066666c16.678788-18.540606 16.290909-95.728485-35.29697-179.587879a402.773333 402.773333 0 0 0-29.944242-36.848485c-77.963636-85.178182-220.004848-103.718788-329.386667-49.027879z" fill="#B3CAFE" p-id="1894"></path><path d="M515.258182 230.089697c75.713939 0 144.989091 28.082424 189.905454 77.575758 97.047273 105.580606 93.866667 210.230303 81.92 223.650909a37.469091 37.469091 0 0 1-28.470303 12.489697h-1.008485c-45.226667 0-131.10303-23.738182-136.145454-25.134546a111.476364 111.476364 0 0 0-33.357576-5.507879A70.981818 70.981818 0 0 0 544.116364 527.515152c-14.584242 11.403636-31.030303 35.141818-25.755152 82.773333 4.344242 45.459394-6.593939 93.090909-27.151515 118.923636a100.848485 100.848485 0 0 1-82.540606 40.649697 111.553939 111.553939 0 0 1-57.406061-16.368485A268.024242 268.024242 0 0 1 262.438788 659.393939a289.047273 289.047273 0 0 1-25.522424-224.504242 285.168485 285.168485 0 0 1 147.936969-174.62303 292.770909 292.770909 0 0 1 130.404849-30.17697m0-15.515152a308.596364 308.596364 0 0 0-137.309091 31.806061A302.08 302.08 0 0 0 249.018182 667.151515a284.935758 284.935758 0 0 0 93.711515 99.607273 126.138182 126.138182 0 0 0 65.629091 18.695757 115.74303 115.74303 0 0 0 94.952727-46.545454c23.272727-29.323636 35.141818-80.833939 30.487273-130.094546-3.490909-32.814545 3.490909-56.242424 19.93697-69.12a55.156364 55.156364 0 0 1 34.36606-10.705454 93.090909 93.090909 0 0 1 28.858182 4.887273s91.539394 25.755152 140.644848 25.755151h1.163637a53.061818 53.061818 0 0 0 40.261818-17.92c21.100606-23.272727 15.515152-138.317576-82.075151-244.906667-49.726061-54.30303-124.741818-82.230303-201.309091-82.230303z" fill="#352635" p-id="1895"></path><path d="M602.530909 801.667879a17.221818 17.221818 0 0 1-5.973333-0.620606 19.859394 19.859394 0 0 1-10.860606-11.71394l-15.515152-55.932121a65.861818 65.861818 0 0 1 23.272727-70.904242 31.030303 31.030303 0 0 1 17.997576-5.895758 28.780606 28.780606 0 0 1 9.619394 1.629091l50.734546 17.997576a28.858182 28.858182 0 0 1 17.299394 19.936969 74.162424 74.162424 0 0 1-28.935758 70.206061L611.995152 799.030303a16.213333 16.213333 0 0 1-9.464243 2.637576z" fill="#FFDD33" p-id="1896"></path><path d="M611.529697 664.358788a20.092121 20.092121 0 0 1 6.981818 1.241212l50.967273 18.075152a20.712727 20.712727 0 0 1 11.946667 13.963636 66.56 66.56 0 0 1-25.6 62.060606l-48.174546 32.426667h-0.387879a7.757576 7.757576 0 0 1-4.421818 1.08606h-2.947879a11.946667 11.946667 0 0 1-6.361212-6.593939l-15.515151-56.009697a58.104242 58.104242 0 0 1 20.557575-62.060606 24.126061 24.126061 0 0 1 13.653334-4.499394m0-15.515152a40.029091 40.029091 0 0 0-22.729697 7.757576 73.541818 73.541818 0 0 0-26.375758 79.282424l15.515152 56.009697a27.849697 27.849697 0 0 0 15.515151 16.911515 24.513939 24.513939 0 0 0 8.455758 1.008485 23.272727 23.272727 0 0 0 13.808485-4.189091l48.562424-32.736969A82.230303 82.230303 0 0 0 696.630303 694.30303a36.305455 36.305455 0 0 0-22.186667-25.367272l-50.734545-17.997576a37.236364 37.236364 0 0 0-12.179394-2.094546z" fill="#352635" p-id="1897"></path><path d="M673.202424 461.653333a35.995152 35.995152 0 1 1 35.917576-35.917575 35.995152 35.995152 0 0 1-35.917576 35.917575z" fill="#B688FF" p-id="1898"></path><path d="M673.202424 397.498182a28.237576 28.237576 0 1 1-28.237576 28.237576 28.237576 28.237576 0 0 1 28.237576-28.237576m0-15.515152a43.752727 43.752727 0 1 0 43.675152 43.752728 43.752727 43.752727 0 0 0-43.675152-43.752728z" fill="#352635" p-id="1899"></path><path d="M693.294545 648.921212a18.540606 18.540606 0 0 1-6.438787-1.163636l-47.398788-17.609697a18.618182 18.618182 0 0 1-10.550303-10.007273 18.307879 18.307879 0 0 1 0-14.429091L744.727273 326.361212a18.540606 18.540606 0 0 1 23.272727-10.24l26.763636 9.69697a18.46303 18.46303 0 0 1 11.093334 23.272727L710.904242 636.121212a18.618182 18.618182 0 0 1-17.609697 12.8z" fill="#FFB82C" p-id="1900"></path><path d="M761.871515 322.715152a12.489697 12.489697 0 0 1 3.723637 0.620606L792.048485 333.575758a10.78303 10.78303 0 0 1 6.438788 13.498181l-94.952728 287.030303a10.78303 10.78303 0 0 1-10.24 7.757576 10.550303 10.550303 0 0 1-3.723636-0.698182l-47.398788-17.609697a10.550303 10.550303 0 0 1-6.128485-5.818181 10.860606 10.860606 0 0 1 0-8.378182l115.898182-279.272728a10.78303 10.78303 0 0 1 10.007273-6.593939m0-15.515151a26.298182 26.298182 0 0 0-24.281212 16.213333l-116.363637 279.272727a26.298182 26.298182 0 0 0 15.515152 34.676364l47.398788 17.687273a27.151515 27.151515 0 0 0 9.153939 1.62909 26.220606 26.220606 0 0 0 24.979394-17.997575l94.952727-287.030303a26.298182 26.298182 0 0 0-15.515151-32.892122l-26.375758-9.852121a25.367273 25.367273 0 0 0-9.153939-1.629091z" fill="#352635" p-id="1901"></path><path d="M390.671515 688.795152a65.086061 65.086061 0 1 1 65.086061-65.086061 65.086061 65.086061 0 0 1-65.086061 65.086061z" fill="#FFFFFF" p-id="1902"></path><path d="M390.671515 566.30303A57.328485 57.328485 0 1 1 333.575758 623.709091a57.328485 57.328485 0 0 1 57.095757-57.406061m0-15.515151a72.843636 72.843636 0 1 0 72.843637 72.843636A72.766061 72.766061 0 0 0 390.671515 550.787879z" fill="#352635" p-id="1903"></path><path d="M425.192727 392.067879a35.995152 35.995152 0 1 1 35.995152-35.995152 35.995152 35.995152 0 0 1-35.995152 35.995152z" fill="#38EBC4" p-id="1904"></path><path d="M425.192727 327.912727a28.237576 28.237576 0 1 1-28.237575 28.16 28.237576 28.237576 0 0 1 28.237575-28.16m0-15.515151a43.752727 43.752727 0 1 0 43.752728 43.675151 43.752727 43.752727 0 0 0-43.752728-43.675151z" fill="#352635" p-id="1905"></path><path d="M351.340606 505.406061a35.995152 35.995152 0 1 1 35.917576-35.995152 35.995152 35.995152 0 0 1-35.917576 35.995152z" fill="#FFDD33" p-id="1906"></path><path d="M351.340606 441.250909a28.237576 28.237576 0 1 1-28.237576 28.16 28.237576 28.237576 0 0 1 28.237576-28.16m0-15.515151a43.752727 43.752727 0 1 0 43.675152 43.675151 43.752727 43.752727 0 0 0-43.675152-43.675151z" fill="#352635" p-id="1907"></path><path d="M568.552727 377.561212A35.995152 35.995152 0 1 1 604.547879 341.333333a35.995152 35.995152 0 0 1-35.995152 36.227879z" fill="#FF4A8B" p-id="1908"></path><path d="M568.552727 313.406061a28.237576 28.237576 0 1 1-28.16 27.927272 28.237576 28.237576 0 0 1 28.16-28.237575m0-15.515152A43.752727 43.752727 0 1 0 612.305455 341.333333a43.675152 43.675152 0 0 0-43.752728-43.752727z" fill="#352635" p-id="1909"></path></svg>