<?xml version="1.0" standalone="no"?><!DOCTYPE svg PUBLIC "-//W3C//DTD SVG 1.1//EN" "http://www.w3.org/Graphics/SVG/1.1/DTD/svg11.dtd"><svg t="1643267860033" class="icon" viewBox="0 0 1024 1024" version="1.1" xmlns="http://www.w3.org/2000/svg" p-id="2499" xmlns:xlink="http://www.w3.org/1999/xlink" width="48" height="48"><defs><style type="text/css"></style></defs><path d="M679.330909 298.821818c-2.56 46.545455-17.764848 83.859394-33.978182 83.006061s-27.306667-39.563636-24.746666-86.186667 16.678788-62.758788 32.892121-62.060606 28.392727 18.385455 25.832727 65.086061z m0 0" fill="#38EBC4" p-id="2500"></path><path d="M645.895758 389.585455h-1.008485c-7.757576-0.465455-19.161212-6.283636-26.375758-31.573334a194.792727 194.792727 0 0 1-5.585454-62.836363c3.413333-62.060606 27.073939-69.818182 40.96-69.12a30.332121 30.332121 0 0 1 26.608484 19.859394 115.74303 115.74303 0 0 1 6.59394 53.372121 195.956364 195.956364 0 0 1-12.489697 62.060606c-9.541818 23.04-20.635152 28.237576-28.70303 28.237576z m6.361212-148.092122c-13.265455 0-21.953939 19.781818-23.893334 54.303031a183.233939 183.233939 0 0 0 5.042425 57.716363c4.499394 15.515152 10.084848 20.169697 12.334545 20.324849s8.300606-3.646061 14.506667-18.850909a180.286061 180.286061 0 0 0 11.32606-56.785455 104.106667 104.106667 0 0 0-5.12-46.08 15.515152 15.515152 0 0 0-13.420606-10.860606z" fill="#352635" p-id="2501"></path><path d="M725.255758 343.117576C678.632727 347.384242 642.01697 363.830303 643.878788 380.121212s40.41697 25.832727 87.04 21.643636 62.060606-18.773333 60.664242-34.986666-19.316364-27.772121-65.939394-23.272727z m0 0" fill="#38EBC4" p-id="2502"></path><path d="M709.275152 410.453333c-29.168485 0-53.604848-5.507879-65.241213-15.515151A21.02303 21.02303 0 0 1 636.121212 380.741818a20.867879 20.867879 0 0 1 5.507879-15.515151c12.024242-14.506667 44.683636-26.14303 83.161212-29.711515 58.647273-5.197576 72.766061 13.730909 74.317576 31.030303s-8.998788 38.089697-67.646061 43.442424c-7.757576 0.155152-15.127273 0.465455-22.186666 0.465454z m16.601212-59.578181c-38.787879 3.568485-65.086061 14.972121-72.610909 24.12606a6.671515 6.671515 0 0 0-2.01697 4.344243 6.749091 6.749091 0 0 0 2.715151 3.878787c9.153939 7.757576 36.693333 14.273939 75.869091 10.783031 35.29697-3.180606 54.846061-12.955152 53.604849-26.608485s-22.186667-19.704242-57.561212-16.523636z" fill="#352635" p-id="2503"></path><path d="M742.477576 335.437576c-45.769697 47.398788-107.209697 62.060606-112.64 57.018182s7.292121-67.180606 52.984242-114.579394 75.481212-51.355152 91.927273-35.452122 13.420606 45.692121-32.271515 93.09091z m0 0" fill="#38EBC4" p-id="2504"></path><path d="M634.492121 401.221818a13.963636 13.963636 0 0 1-10.162424-3.335757c-10.860606-10.78303 7.757576-78.506667 52.906667-125.362425 58.647273-60.819394 89.6-48.484848 102.865454-35.684848a39.641212 39.641212 0 0 1 9.231515 42.433939c-5.12 17.764848-19.006061 38.787879-41.347878 61.517576-40.804848 42.356364-93.866667 60.276364-113.183031 60.431515z m2.01697-12.334545z m117.21697-147.39394c-16.368485 0-38.787879 14.273939-65.318788 41.425455-37.779394 38.787879-51.432727 88.126061-52.053334 102.4 14.196364-1.086061 62.603636-16.446061 100.848485-55.621818 20.48-21.333333 33.124848-39.796364 37.546667-55.078788a25.05697 25.05697 0 0 0-5.430303-26.375758 21.721212 21.721212 0 0 0-15.592727-6.361212zM633.250909 385.629091z" fill="#352635" p-id="2505"></path><path d="M668.16 377.095758a124.121212 124.121212 0 0 0-172.528485 20.635151l-222.17697 277.721212a84.48 84.48 0 0 0-3.878787 100.227879 84.402424 84.402424 0 0 0 100.150303-3.878788l277.798787-222.254545a124.121212 124.121212 0 0 0 20.635152-172.450909z" fill="#EE7725" p-id="2506"></path><path d="M570.181818 344.513939a108.606061 108.606061 0 0 1 67.646061 192.930909L360.029091 759.699394a68.964848 68.964848 0 0 1-42.97697 15.049697 68.809697 68.809697 0 0 1-53.76-111.786667l222.254546-277.798788a107.752727 107.752727 0 0 1 84.635151-40.649697m0-15.515151A123.267879 123.267879 0 0 0 473.212121 375.466667L251.190303 653.265455a84.324848 84.324848 0 0 0 118.535758 118.535757l277.798787-222.254545a124.121212 124.121212 0 0 0 10.24-184.32 123.500606 123.500606 0 0 0-87.58303-36.227879z" fill="#352635" p-id="2507"></path><path d="M455.117677 402.70728m4.443202 4.443202l71.200939 71.200939q4.443202 4.443202 0 8.886404l0 0q-4.443202 4.443202-8.886404 0l-71.200939-71.200939q-4.443202-4.443202 0-8.886404l0 0q4.443202-4.443202 8.886404 0Z" fill="#352635" p-id="2508"></path><path d="M418.141837 453.01858m4.443202 4.443202l44.486873 44.486873q4.443202 4.443202 0 8.886404l0 0q-4.443202 4.443202-8.886403 0l-44.486874-44.486873q-4.443202-4.443202 0-8.886404l0 0q4.443202-4.443202 8.886404 0Z" fill="#352635" p-id="2509"></path><path d="M430.52957 653.818871m4.443202 4.443202l26.714065 26.714066q4.443202 4.443202 0 8.886403l0 0q-4.443202 4.443202-8.886404 0l-26.714065-26.714065q-4.443202-4.443202 0-8.886404l0 0q4.443202-4.443202 8.886404 0Z" fill="#352635" p-id="2510"></path></svg>