<?xml version="1.0" standalone="no"?><!DOCTYPE svg PUBLIC "-//W3C//DTD SVG 1.1//EN" "http://www.w3.org/Graphics/SVG/1.1/DTD/svg11.dtd"><svg t="1643267863221" class="icon" viewBox="0 0 1024 1024" version="1.1" xmlns="http://www.w3.org/2000/svg" p-id="2659" xmlns:xlink="http://www.w3.org/1999/xlink" width="48" height="48"><defs><style type="text/css"></style></defs><path d="M485.779394 708.499394V349.090909c-116.363636 0-224.969697-20.635152-224.969697 157.246061s108.606061 202.24 224.969697 202.24z m0 0" fill="#EE7725" p-id="2660"></path><path d="M493.53697 716.25697h-7.757576c-114.967273 0-232.727273-24.979394-232.727273-209.997576 0-61.595152 12.877576-104.261818 39.486061-130.404849 37.701818-37.081212 97.124848-36.072727 160.038788-34.986666 10.78303 0 21.798788 0.387879 32.892121 0.387879h7.757576zM420.926061 356.072727c-48.562424 0-89.910303 4.033939-117.21697 31.030303-23.272727 23.272727-34.831515 62.060606-34.831515 119.311515 0 158.17697 83.238788 193.086061 209.454545 194.404849V356.848485l-25.444848-0.387879c-10.705455-0.232727-21.721212-0.387879-31.961212-0.387879z" fill="#352635" p-id="2661"></path><path d="M509.284848 708.499394V349.090909c116.363636 0 224.969697-20.635152 224.969697 157.246061s-108.606061 202.24-224.969697 202.24z m0 0" fill="#EE7725" p-id="2662"></path><path d="M509.284848 716.25697h-7.757575V341.333333h7.757575c11.093333 0 22.031515 0 32.892122-0.387878 62.913939-1.086061 122.33697-2.094545 160.038788 34.986666 26.608485 26.14303 39.486061 68.809697 39.48606 130.404849 0 184.940606-117.449697 209.92-232.41697 209.92z m7.757576-359.486061v343.893333c125.905455-1.318788 209.454545-36.227879 209.454546-194.404848 0-57.250909-11.403636-96.271515-34.831515-119.311515-33.047273-32.504242-86.729697-31.650909-148.945455-30.564849z" fill="#352635" p-id="2663"></path><path d="M514.870303 732.004848V372.363636C398.661818 372.363636 217.212121 318.060606 217.212121 529.842424c0 200.300606 181.449697 202.162424 297.658182 202.162424z m0 0" fill="#EE7725" p-id="2664"></path><path d="M522.627879 739.762424h-7.757576c-114.191515 0-305.415758 0-305.415758-209.92 0-61.44 14.661818-104.882424 44.838788-133.042424 48.872727-45.53697 129.008485-39.951515 199.68-34.986667 21.643636 1.551515 42.123636 2.947879 60.89697 2.947879h7.757576zM384.232727 374.070303c-46.002424 0-89.987879 6.671515-119.389091 34.055758C238.002424 433.18303 224.969697 473.212121 224.969697 529.842424c0 190.138182 166.865455 193.939394 282.14303 194.404849V380.121212c-17.066667 0-35.219394-1.551515-54.30303-2.870303-22.341818-1.551515-45.692121-3.180606-68.57697-3.180606z" fill="#352635" p-id="2665"></path><path d="M509.129697 732.004848c116.363636 0 297.658182-1.861818 297.658182-202.162424C806.787879 318.060606 625.338182 372.363636 509.129697 372.363636v359.641212z m0 0" fill="#EE7725" p-id="2666"></path><path d="M509.129697 739.762424h-7.757576V364.606061h7.757576c18.773333 0 39.253333-1.396364 60.89697-2.947879 70.671515-4.964848 150.807273-10.550303 199.68 34.986666 30.17697 28.16 44.838788 71.602424 44.838788 133.042425 0 210.075152-191.224242 210.075152-305.415758 210.075151z m7.757576-359.563636v344.048485c115.277576 0 282.14303-4.266667 282.14303-194.404849 0-56.86303-13.032727-96.659394-39.873939-121.716363-43.985455-40.96-120.552727-35.529697-188.043637-31.030303-19.006061 1.551515-37.158788 3.025455-54.225454 3.025454z" fill="#352635" p-id="2667"></path><path d="M509.284848 702.603636C620.606061 702.603636 632.86303 622.157576 632.86303 522.860606S620.606061 343.117576 509.284848 343.117576 385.706667 423.563636 385.706667 522.860606s12.334545 179.74303 123.578181 179.74303z m0 0" fill="#EE7725" p-id="2668"></path><path d="M509.284848 710.361212C387.878788 710.361212 377.949091 617.735758 377.949091 522.860606S387.878788 335.36 509.284848 335.36 640.620606 427.985455 640.620606 522.860606s-10.162424 187.500606-131.335758 187.500606z m0-359.48606C411.927273 350.875152 393.464242 411.151515 393.464242 522.860606s18.46303 171.985455 115.820606 171.985455 115.820606-60.431515 115.820607-171.985455-18.46303-171.985455-115.820607-171.985454z" fill="#352635" p-id="2669"></path><path d="M514.792727 370.579394a55.854545 55.854545 0 0 1 18.152728 3.180606A128.54303 128.54303 0 0 1 564.673939 310.30303 321.008485 321.008485 0 0 1 535.272727 291.995152c-36.150303 16.911515-61.284848 53.527273-69.818182 100.848484 0.853333 0.853333 1.784242 1.706667 2.404849 2.404849a58.104242 58.104242 0 0 1 46.545454-24.979394z m0 0" fill="#38EBC4" p-id="2670"></path><path d="M468.557576 407.893333l-6.438788-7.136969a17.997576 17.997576 0 0 0-1.241212-1.396364l-3.646061-3.723636 0.698182-3.956364c8.688485-50.036364 35.684848-88.979394 74.007273-106.899394l4.189091-1.939394 3.723636 2.715152a297.890909 297.890909 0 0 0 28.70303 17.842424l9.231515 5.275151-7.757575 7.13697a120.940606 120.940606 0 0 0-29.168485 58.259394l-0.698182 10.084849-9.541818-3.258182a47.864242 47.864242 0 0 0-56.242424 19.161212z m65.939394-106.899394a119.544242 119.544242 0 0 0-56.707879 73.929697 62.060606 62.060606 0 0 1 48.950303-10.860606 151.660606 151.660606 0 0 1 25.677576-51.898182c-8.455758-4.964848-14.118788-8.610909-17.92-11.170909z" fill="#352635" p-id="2671"></path><path d="M509.284848 732.004848V372.363636c-116.363636 0-224.969697-20.635152-224.969696 157.323637s108.606061 202.162424 224.969696 202.162424z m0 0" fill="#FFFFFF" p-id="2672"></path><path d="M302.545455 535.660606c0 110.390303 41.735758 161.590303 100.848484 184.630303a391.059394 391.059394 0 0 0 105.890909 11.713939v-353.745454C399.90303 376.86303 302.545455 366.855758 302.545455 535.660606z" fill="#EE7725" p-id="2673"></path><path d="M517.042424 739.762424h-7.757576c-114.967273 0-232.727273-24.901818-232.727272-209.92 0-61.672727 12.877576-104.339394 39.48606-130.482424 37.701818-37.003636 97.124848-35.995152 160.038788-34.909091h40.649697z m-72.610909-360.184242c-48.562424 0-89.910303 4.033939-117.21697 31.030303-23.272727 23.272727-34.831515 62.060606-34.831515 119.389091 0 158.099394 83.238788 193.086061 209.454546 194.404848V380.121212h-25.367273c-11.015758 0-21.721212-0.54303-32.038788-0.54303z" fill="#352635" p-id="2674"></path><path d="M509.284848 732.004848V372.363636c116.363636 0 224.969697-20.635152 224.969697 157.323637s-108.606061 202.162424-224.969697 202.162424z m0 0" fill="#EE7725" p-id="2675"></path><path d="M509.284848 739.762424h-7.757575V364.606061h40.649697c62.913939-1.086061 122.33697-2.094545 160.038788 34.909091 26.608485 26.14303 39.486061 68.809697 39.48606 130.482424 0 184.86303-117.449697 209.764848-232.41697 209.764848z m7.757576-359.48606v343.970909c125.905455-1.318788 209.454545-36.305455 209.454546-194.404849 0-57.250909-11.403636-96.349091-34.831515-119.389091-33.047273-32.504242-86.729697-31.573333-148.945455-30.487272z" fill="#352635" p-id="2676"></path><path d="M509.284848 732.004848C620.606061 732.004848 632.86303 651.636364 632.86303 552.261818S620.606061 372.363636 509.284848 372.363636 385.706667 453.042424 385.706667 552.261818s12.334545 179.74303 123.578181 179.74303z m0 0" fill="#FFFFFF" p-id="2677"></path><path d="M632.86303 552.261818c0-80.756364-8.22303-149.100606-71.214545-171.752727a184.009697 184.009697 0 0 0-28.858182-2.094546c-111.166061 0-123.578182 80.446061-123.578182 180.13091 0 80.833939 8.22303 149.178182 71.214546 171.752727a184.707879 184.707879 0 0 0 28.858181 2.094545C620.606061 732.004848 632.86303 651.636364 632.86303 552.261818z" fill="#EE7725" p-id="2678"></path><path d="M509.284848 739.762424c-121.406061 0-131.335758-92.625455-131.335757-187.500606S387.878788 364.606061 509.284848 364.606061s131.335758 93.090909 131.335758 187.655757-10.162424 187.500606-131.335758 187.500606z m0-359.48606C411.927273 380.121212 393.464242 440.707879 393.464242 552.261818s18.46303 171.985455 115.820606 171.985455 115.820606-60.431515 115.820607-171.985455S606.642424 380.121212 509.284848 380.121212z" fill="#352635" p-id="2679"></path></svg>