<?xml version="1.0" standalone="no"?><!DOCTYPE svg PUBLIC "-//W3C//DTD SVG 1.1//EN" "http://www.w3.org/Graphics/SVG/1.1/DTD/svg11.dtd"><svg t="1643267837465" class="icon" viewBox="0 0 1024 1024" version="1.1" xmlns="http://www.w3.org/2000/svg" p-id="2052" xmlns:xlink="http://www.w3.org/1999/xlink" width="48" height="48"><defs><style type="text/css"></style></defs><path d="M757.21697 426.666667a86.729697 86.729697 0 0 0-4.03394-21.178182c-20.712727-29.090909-57.018182-46.545455-90.763636-40.41697C612.848485 373.527273 550.787879 475.384242 495.941818 514.327273s-107.287273 46.545455-162.909091 75.713939a123.578182 123.578182 0 0 0-57.561212 147.39394c93.944242 154.686061 260.887273 25.05697 343.505455-52.053334C703.612121 606.332121 760.630303 481.590303 757.21697 426.666667z" fill="#C672DB" p-id="2053"></path><path d="M391.13697 817.570909a139.636364 139.636364 0 0 1-23.272728-1.861818c-43.752727-7.757576-79.515152-36.538182-106.278787-86.884849a122.957576 122.957576 0 0 1-6.826667-97.202424 131.258182 131.258182 0 0 1 61.672727-74.395151 555.985455 555.985455 0 0 1 67.180606-28.858182c32.271515-12.179394 62.758788-23.738182 94.564849-46.545455 21.721212-15.515152 45.381818-41.968485 68.344242-67.568485 35.684848-39.951515 69.818182-77.575758 101.236364-83.316363a98.133333 98.133333 0 0 1 77.575757 21.255757 102.4 102.4 0 0 1 39.563637 73.386667c3.646061 59.733333-55.77697 186.181818-140.722425 265.231515-89.987879 84.324848-168.261818 126.758788-233.037575 126.758788zM275.626667 721.454545c24.358788 45.847273 56.32 72.378182 95.107878 78.81697 63.069091 10.627879 147.393939-31.030303 242.967273-120.630303C694.30303 604.470303 752.872727 481.900606 749.459394 426.666667a86.807273 86.807273 0 0 0-33.667879-62.060606 82.773333 82.773333 0 0 0-65.008485-18.152728c-26.530909 4.732121-59.966061 42.123636-92.392727 78.351515-23.272727 26.298182-47.786667 53.449697-70.981818 69.818182A406.729697 406.729697 0 0 1 389.430303 543.030303a549.469091 549.469091 0 0 0-65.396364 28.082424 115.587879 115.587879 0 0 0-54.30303 65.551515 107.830303 107.830303 0 0 0 5.895758 85.333334z" fill="#352635" p-id="2054"></path><path d="M730.530909 215.893333c-5.585455 31.650909-21.643636 109.847273-45.226667 117.21697-23.272727-6.749091-44.761212-4.189091-82.152727 29.633939-14.351515 11.093333-21.953939 11.946667-29.090909 10.24s45.614545 42.278788 72.843636 32.19394c5.973333 22.807273 6.981818 60.586667 16.058182 64s58.724848-25.987879 65.47394-42.899394c6.128485 11.869091 6.826667 39.486061 23.272727 48.019394 4.499394-9.076364 19.238788-45.304242 15.515151-68.654546a76.722424 76.722424 0 0 0-33.512727-52.208484S758.070303 287.030303 760.242424 264.843636s2.870303-31.573333-3.180606-40.416969a21.876364 21.876364 0 0 0-26.14303-8.533334z m0 0" fill="#85E374" p-id="2055"></path><path d="M755.355152 484.770909l-7.059394-3.801212c-14.196364-7.757576-18.618182-24.281212-22.186667-37.934545v-0.698182c-18.307879 17.997576-54.30303 38.167273-65.473939 33.978182-9.619394-3.646061-12.179394-17.842424-15.515152-42.666667-1.008485-6.593939-2.01697-13.420606-3.258182-19.549091-29.246061 2.404848-68.033939-29.090909-72.998788-35.141818a8.533333 8.533333 0 0 1-1.08606-10.24l3.025454-4.732121 5.973334 1.318787c3.025455 0.775758 7.757576 2.01697 22.186666-8.843636 37.934545-34.366061 61.595152-38.089697 86.341818-31.650909 9.929697-5.973333 25.212121-37.701818 38.167273-110.390303l0.698182-3.878788 3.490909-1.706667a29.556364 29.556364 0 0 1 35.917576 10.938182c7.757576 10.860606 6.516364 21.721212 4.732121 43.287273v2.327273c-1.629091 19.316364-18.695758 68.809697-24.591515 85.333333a82.307879 82.307879 0 0 1 32.038788 53.682424c3.956364 24.979394-10.705455 62.060606-16.213334 73.231515zM667.151515 462.506667z m-14.584242-67.646061l2.172121 8.533333c2.172121 8.455758 3.723636 18.540606 5.197576 28.315152a139.636364 139.636364 0 0 0 6.361212 30.099394c11.403636-1.706667 50.269091-25.832727 55.233939-38.167273l6.361212-15.515151 7.757576 15.049697a86.652121 86.652121 0 0 1 5.507879 16.601212 79.90303 79.90303 0 0 0 7.757576 21.953939c5.973333-15.515152 13.032727-38.787879 10.627878-54.30303A69.352727 69.352727 0 0 0 729.212121 359.641212l-4.654545-3.490909 2.016969-5.352727c6.593939-18.230303 24.126061-69.275152 25.522425-86.574546v-2.249697c1.706667-20.48 2.01697-27.229091-2.01697-33.124848a15.515152 15.515152 0 0 0-12.955152-6.826667C724.092121 294.787879 707.335758 334.351515 687.631515 340.557576l-2.172121 0.698182-2.249697-0.620606c-21.721212-6.283636-40.029091-3.646061-74.860606 27.927272a77.575758 77.575758 0 0 1-16.678788 10.24c14.661818 10.395152 39.408485 24.048485 52.829091 19.083637z" fill="#352635" p-id="2056"></path></svg>