<?xml version="1.0" encoding="UTF-8"?>
<svg width="5120px" height="1248px" viewBox="0 0 5120 1248" version="1.1" xmlns="http://www.w3.org/2000/svg" xmlns:xlink="http://www.w3.org/1999/xlink">
    <!-- Generator: Sketch 59.1 (86144) - https://sketch.com -->
    <title>编组</title>
    <desc>Created with Sketch.</desc>
    <defs>
        <polygon id="path-1" points="0 0 4609.58993 0 4609.58993 1247.9995 0 1247.9995"></polygon>
    </defs>
    <g id="–-" stroke="none" stroke-width="1" fill="none" fill-rule="evenodd">
        <g id="编组">
            <mask id="mask-2" fill="white">
                <use xlink:href="#path-1"></use>
            </mask>
            <g id="Clip-2"></g>
            <path d="M0,1139.9995 L0,-0.0005 L4572,-0.0005 C4575.473,3.5345 4576.371,8.1935 4577.309,12.7395 C4589.826,73.4795 4599.766,134.5635 4605.479,196.4055 C4610.46,250.3325 4610.175,304.3205 4608.475,358.1925 C4606.536,419.5825 4596.467,480.1285 4580.512,539.5865 C4556.128,630.4495 4516.953,714.1425 4459.57,788.9385 C4411.873,851.1105 4354.874,903.2535 4289.291,946.1805 C4225.521,987.9205 4156.826,1019.2505 4084.501,1042.4555 C4016.735,1064.1975 3947.247,1078.1895 3876.333,1085.5145 C3819.57,1091.3765 3762.708,1094.6485 3705.76,1092.7265 C3656.865,1091.0755 3607.931,1090.4695 3559.047,1087.6365 C3527.829,1085.8275 3496.537,1084.5065 3465.297,1082.8165 C3431.073,1080.9665 3396.877,1078.3635 3362.689,1075.7305 C3326.835,1072.9695 3290.986,1070.1605 3255.157,1067.0965 C3214.013,1063.5775 3172.888,1059.8305 3131.764,1056.0755 C3090.975,1052.3515 3050.173,1048.7565 3009.383,1045.0415 C2973.237,1041.7495 2937.072,1038.6585 2900.896,1035.7995 C2868.709,1033.2565 2836.479,1031.1535 2804.269,1028.8955 C2774.716,1026.8245 2745.102,1025.9205 2715.568,1023.5595 C2698.646,1022.2065 2681.635,1022.1225 2664.684,1021.4415 C2572.099,1017.7245 2479.427,1018.0895 2386.817,1019.5025 C2330.283,1020.3655 2273.707,1023.3245 2217.264,1027.3575 C2151.16,1032.0825 2085.163,1037.9425 2019.385,1046.3645 C1934.406,1057.2435 1849.807,1070.3785 1765.463,1085.3625 C1653.558,1105.2425 1542.298,1128.3975 1430.788,1150.2955 C1289.842,1177.9725 1148.827,1205.3875 1006.309,1223.9945 C953.136,1230.9375 899.838,1236.8185 846.376,1241.3185 C793.895,1245.7355 741.354,1247.0155 688.741,1247.0005 C686.473,1246.9995 684.052,1246.3765 682,1247.9995 L582,1247.9995 C578.929,1246.0335 575.505,1246.9925 572.274,1247.0295 C491.592,1247.9365 411.523,1240.8955 331.661,1229.8445 C259.423,1219.8485 187.303,1209.3765 116.372,1192.1145 C89.167,1185.4935 62.617,1176.7345 37.188,1164.8205 C23.527,1158.4205 10.835,1150.6115 0,1139.9995" id="Fill-1" fill="#F7F9FC" mask="url(#mask-2)"></path>
        </g>
    </g>
</svg>