<?xml version="1.0" standalone="no"?><!DOCTYPE svg PUBLIC "-//W3C//DTD SVG 1.1//EN" "http://www.w3.org/Graphics/SVG/1.1/DTD/svg11.dtd"><svg t="1589433207684" class="icon" viewBox="0 0 1024 1024" version="1.1" xmlns="http://www.w3.org/2000/svg" p-id="14186" width="256" height="256" xmlns:xlink="http://www.w3.org/1999/xlink"><defs><style type="text/css"></style></defs><path d="M738.133333 89.6C667.733333 85.333333 603.733333 106.666667 554.666667 145.066667c-25.6 19.2-59.733333 19.2-83.2 0C420.266667 106.666667 356.266667 85.333333 288 89.6c-164.266667 8.533333-277.333333 160-262.4 324.266667 21.333333 262.4 260.266667 439.466667 396.8 518.4 55.466667 32 125.866667 32 181.333333 0C738.133333 853.333333 979.2 678.4 1002.666667 413.866667c12.8-162.133333-100.266667-313.6-264.533334-324.266667z" fill="#fccbe1" p-id="14187"></path><path d="M718.933333 128c-64-4.266667-121.6 17.066667-168.533333 51.2-23.466667 17.066667-53.333333 17.066667-76.8 0C426.666667 145.066667 369.066667 125.866667 305.066667 128c-149.333333 8.533333-253.866667 147.2-238.933334 294.4 21.333333 241.066667 241.066667 401.066667 362.666667 471.466667 51.2 29.866667 115.2 29.866667 164.266667 0 123.733333-72.533333 341.333333-232.533333 362.666666-471.466667 14.933333-147.2-87.466667-285.866667-236.8-294.4z" fill="#fccbe1" p-id="14188"></path></svg>